<svg id="visual" viewBox="0 0 900 600" width="900" height="600" xmlns="http://www.w3.org/2000/svg" xmlns:xlink="http://www.w3.org/1999/xlink" version="1.1"><rect x="0" y="0" width="900" height="600" fill="#001220"></rect><path d="M0 168L21.5 174.7C43 181.3 86 194.7 128.8 199.3C171.7 204 214.3 200 257.2 186.2C300 172.3 343 148.7 385.8 156.5C428.7 164.3 471.3 203.7 514.2 200C557 196.3 600 149.7 642.8 145C685.7 140.3 728.3 177.7 771.2 185.2C814 192.7 857 170.3 878.5 159.2L900 148L900 601L878.5 601C857 601 814 601 771.2 601C728.3 601 685.7 601 642.8 601C600 601 557 601 514.2 601C471.3 601 428.7 601 385.8 601C343 601 300 601 257.2 601C214.3 601 171.7 601 128.8 601C86 601 43 601 21.5 601L0 601Z" fill="#6a2f48"></path><path d="M0 222L21.5 238.8C43 255.7 86 289.3 128.8 289.7C171.7 290 214.3 257 257.2 251.2C300 245.3 343 266.7 385.8 269.7C428.7 272.7 471.3 257.3 514.2 251.7C557 246 600 250 642.8 259.3C685.7 268.7 728.3 283.3 771.2 300.5C814 317.7 857 337.3 878.5 347.2L900 357L900 601L878.5 601C857 601 814 601 771.2 601C728.3 601 685.7 601 642.8 601C600 601 557 601 514.2 601C471.3 601 428.7 601 385.8 601C343 601 300 601 257.2 601C214.3 601 171.7 601 128.8 601C86 601 43 601 21.5 601L0 601Z" fill="#502743"></path><path d="M0 313L21.5 306.5C43 300 86 287 128.8 302C171.7 317 214.3 360 257.2 364.5C300 369 343 335 385.8 322.5C428.7 310 471.3 319 514.2 317.8C557 316.7 600 305.3 642.8 318.2C685.7 331 728.3 368 771.2 380.3C814 392.7 857 380.3 878.5 374.2L900 368L900 601L878.5 601C857 601 814 601 771.2 601C728.3 601 685.7 601 642.8 601C600 601 557 601 514.2 601C471.3 601 428.7 601 385.8 601C343 601 300 601 257.2 601C214.3 601 171.7 601 128.8 601C86 601 43 601 21.5 601L0 601Z" fill="#372039"></path><path d="M0 451L21.5 440.2C43 429.3 86 407.7 128.8 398C171.7 388.3 214.3 390.7 257.2 405C300 419.3 343 445.7 385.8 457.7C428.7 469.7 471.3 467.3 514.2 452.5C557 437.7 600 410.3 642.8 413.2C685.7 416 728.3 449 771.2 453C814 457 857 432 878.5 419.5L900 407L900 601L878.5 601C857 601 814 601 771.2 601C728.3 601 685.7 601 642.8 601C600 601 557 601 514.2 601C471.3 601 428.7 601 385.8 601C343 601 300 601 257.2 601C214.3 601 171.7 601 128.8 601C86 601 43 601 21.5 601L0 601Z" fill="#21182c"></path><path d="M0 531L21.5 519.2C43 507.3 86 483.7 128.8 480.2C171.7 476.7 214.3 493.3 257.2 506.2C300 519 343 528 385.8 523C428.7 518 471.3 499 514.2 495.5C557 492 600 504 642.8 513.3C685.7 522.7 728.3 529.3 771.2 520.7C814 512 857 488 878.5 476L900 464L900 601L878.5 601C857 601 814 601 771.2 601C728.3 601 685.7 601 642.8 601C600 601 557 601 514.2 601C471.3 601 428.7 601 385.8 601C343 601 300 601 257.2 601C214.3 601 171.7 601 128.8 601C86 601 43 601 21.5 601L0 601Z" fill="#0e0c1d"></path></svg>