<svg id="visual" viewBox="0 0 900 600" width="900" height="600" xmlns="http://www.w3.org/2000/svg" xmlns:xlink="http://www.w3.org/1999/xlink" version="1.1"><rect x="0" y="0" width="900" height="600" fill="#001220"></rect><path d="M0 252L21.5 268.8C43 285.7 86 319.3 128.8 331.3C171.7 343.3 214.3 333.7 257.2 330.8C300 328 343 332 385.8 329.5C428.7 327 471.3 318 514.2 317.8C557 317.7 600 326.3 642.8 325.5C685.7 324.7 728.3 314.3 771.2 300C814 285.7 857 267.3 878.5 258.2L900 249L900 601L878.5 601C857 601 814 601 771.2 601C728.3 601 685.7 601 642.8 601C600 601 557 601 514.2 601C471.3 601 428.7 601 385.8 601C343 601 300 601 257.2 601C214.3 601 171.7 601 128.8 601C86 601 43 601 21.5 601L0 601Z" fill="#6a2f48"></path><path d="M0 347L21.5 344.8C43 342.7 86 338.3 128.8 349.2C171.7 360 214.3 386 257.2 397C300 408 343 404 385.8 389.7C428.7 375.3 471.3 350.7 514.2 336C557 321.3 600 316.7 642.8 318.5C685.7 320.3 728.3 328.7 771.2 346C814 363.3 857 389.7 878.5 402.8L900 416L900 601L878.5 601C857 601 814 601 771.2 601C728.3 601 685.7 601 642.8 601C600 601 557 601 514.2 601C471.3 601 428.7 601 385.8 601C343 601 300 601 257.2 601C214.3 601 171.7 601 128.8 601C86 601 43 601 21.5 601L0 601Z" fill="#502743"></path><path d="M0 449L21.5 440.7C43 432.3 86 415.7 128.8 403.8C171.7 392 214.3 385 257.2 393.7C300 402.3 343 426.7 385.8 434C428.7 441.3 471.3 431.7 514.2 419.2C557 406.7 600 391.3 642.8 385.7C685.7 380 728.3 384 771.2 397.5C814 411 857 434 878.5 445.5L900 457L900 601L878.5 601C857 601 814 601 771.2 601C728.3 601 685.7 601 642.8 601C600 601 557 601 514.2 601C471.3 601 428.7 601 385.8 601C343 601 300 601 257.2 601C214.3 601 171.7 601 128.8 601C86 601 43 601 21.5 601L0 601Z" fill="#372039"></path><path d="M0 465L21.5 466.3C43 467.7 86 470.3 128.8 477.7C171.7 485 214.3 497 257.2 495.3C300 493.7 343 478.3 385.8 473.2C428.7 468 471.3 473 514.2 470C557 467 600 456 642.8 459C685.7 462 728.3 479 771.2 487C814 495 857 494 878.5 493.5L900 493L900 601L878.5 601C857 601 814 601 771.2 601C728.3 601 685.7 601 642.8 601C600 601 557 601 514.2 601C471.3 601 428.7 601 385.8 601C343 601 300 601 257.2 601C214.3 601 171.7 601 128.8 601C86 601 43 601 21.5 601L0 601Z" fill="#21182c"></path><path d="M0 524L21.5 522.7C43 521.3 86 518.7 128.8 514.5C171.7 510.3 214.3 504.7 257.2 512.7C300 520.7 343 542.3 385.8 541.8C428.7 541.3 471.3 518.7 514.2 515.2C557 511.7 600 527.3 642.8 527.8C685.7 528.3 728.3 513.7 771.2 511.3C814 509 857 519 878.5 524L900 529L900 601L878.5 601C857 601 814 601 771.2 601C728.3 601 685.7 601 642.8 601C600 601 557 601 514.2 601C471.3 601 428.7 601 385.8 601C343 601 300 601 257.2 601C214.3 601 171.7 601 128.8 601C86 601 43 601 21.5 601L0 601Z" fill="#0e0c1d"></path></svg>