<svg id="visual" viewBox="0 0 900 600" width="900" height="600" xmlns="http://www.w3.org/2000/svg" xmlns:xlink="http://www.w3.org/1999/xlink" version="1.1"><g stroke-width="1" stroke-linejoin="bevel"><path d="M475 295L520 361L570 289Z" fill="#19435d" stroke="#19435d"></path><path d="M570 289L489 193L475 295Z" fill="#277297" stroke="#277297"></path><path d="M520 361L567 409L570 289Z" fill="#297ea6" stroke="#297ea6"></path><path d="M570 289L673 301L597 234Z" fill="#112e42" stroke="#112e42"></path><path d="M597 234L489 193L570 289Z" fill="#205a7a" stroke="#205a7a"></path><path d="M362 338L432 416L475 295Z" fill="#277297" stroke="#277297"></path><path d="M475 295L432 416L520 361Z" fill="#1d4e6b" stroke="#1d4e6b"></path><path d="M520 361L432 416L567 409Z" fill="#297ea6" stroke="#297ea6"></path><path d="M489 193L429 200L475 295Z" fill="#1d4e6b" stroke="#1d4e6b"></path><path d="M567 409L673 301L570 289Z" fill="#19435d" stroke="#19435d"></path><path d="M429 200L362 338L475 295Z" fill="#00101c" stroke="#00101c"></path><path d="M613 108L515 115L597 234Z" fill="#00101c" stroke="#00101c"></path><path d="M597 234L515 115L489 193Z" fill="#205a7a" stroke="#205a7a"></path><path d="M489 193L417 83L429 200Z" fill="#205a7a" stroke="#205a7a"></path><path d="M673 301L679 185L597 234Z" fill="#0c2435" stroke="#0c2435"></path><path d="M398 531L471 520L432 416Z" fill="#19435d" stroke="#19435d"></path><path d="M432 416L471 520L567 409Z" fill="#1d4e6b" stroke="#1d4e6b"></path><path d="M567 409L732 402L673 301Z" fill="#1d4e6b" stroke="#1d4e6b"></path><path d="M299 339L317 385L362 338Z" fill="#19435d" stroke="#19435d"></path><path d="M362 338L317 385L432 416Z" fill="#0c2435" stroke="#0c2435"></path><path d="M679 185L613 108L597 234Z" fill="#1d4e6b" stroke="#1d4e6b"></path><path d="M471 520L632 503L567 409Z" fill="#1d4e6b" stroke="#1d4e6b"></path><path d="M300 201L299 339L362 338Z" fill="#081a28" stroke="#081a28"></path><path d="M632 503L732 402L567 409Z" fill="#112e42" stroke="#112e42"></path><path d="M673 301L762 239L679 185Z" fill="#1d4e6b" stroke="#1d4e6b"></path><path d="M619 600L662 513L632 503Z" fill="#297ea6" stroke="#297ea6"></path><path d="M632 503L662 513L732 402Z" fill="#081a28" stroke="#081a28"></path><path d="M788 328L762 239L673 301Z" fill="#081a28" stroke="#081a28"></path><path d="M710 0L569 0L613 108Z" fill="#0c2435" stroke="#0c2435"></path><path d="M417 83L300 201L429 200Z" fill="#15384f" stroke="#15384f"></path><path d="M429 200L300 201L362 338Z" fill="#081a28" stroke="#081a28"></path><path d="M495 0L417 83L515 115Z" fill="#15384f" stroke="#15384f"></path><path d="M515 115L417 83L489 193Z" fill="#246688" stroke="#246688"></path><path d="M317 385L398 531L432 416Z" fill="#297ea6" stroke="#297ea6"></path><path d="M471 520L537 600L632 503Z" fill="#246688" stroke="#246688"></path><path d="M805 408L788 328L732 402Z" fill="#081a28" stroke="#081a28"></path><path d="M732 402L788 328L673 301Z" fill="#15384f" stroke="#15384f"></path><path d="M299 339L235 338L317 385Z" fill="#246688" stroke="#246688"></path><path d="M317 385L313 532L398 531Z" fill="#19435d" stroke="#19435d"></path><path d="M300 201L235 338L299 339Z" fill="#112e42" stroke="#112e42"></path><path d="M375 600L537 600L471 520Z" fill="#246688" stroke="#246688"></path><path d="M797 463L805 408L732 402Z" fill="#0c2435" stroke="#0c2435"></path><path d="M537 600L619 600L632 503Z" fill="#15384f" stroke="#15384f"></path><path d="M662 513L797 463L732 402Z" fill="#277297" stroke="#277297"></path><path d="M202 474L313 532L317 385Z" fill="#00101c" stroke="#00101c"></path><path d="M398 531L375 600L471 520Z" fill="#1d4e6b" stroke="#1d4e6b"></path><path d="M569 0L515 115L613 108Z" fill="#19435d" stroke="#19435d"></path><path d="M569 0L495 0L515 115Z" fill="#112e42" stroke="#112e42"></path><path d="M289 95L234 180L300 201Z" fill="#112e42" stroke="#112e42"></path><path d="M788 600L797 463L662 513Z" fill="#081a28" stroke="#081a28"></path><path d="M727 69L613 108L679 185Z" fill="#277297" stroke="#277297"></path><path d="M769 91L679 185L762 239Z" fill="#15384f" stroke="#15384f"></path><path d="M769 91L727 69L679 185Z" fill="#081a28" stroke="#081a28"></path><path d="M289 95L300 201L417 83Z" fill="#00101c" stroke="#00101c"></path><path d="M300 201L234 180L235 338Z" fill="#15384f" stroke="#15384f"></path><path d="M329 0L289 95L417 83Z" fill="#297ea6" stroke="#297ea6"></path><path d="M495 0L431 0L417 83Z" fill="#15384f" stroke="#15384f"></path><path d="M313 532L375 600L398 531Z" fill="#246688" stroke="#246688"></path><path d="M900 184L769 91L762 239Z" fill="#00101c" stroke="#00101c"></path><path d="M900 319L762 239L788 328Z" fill="#1d4e6b" stroke="#1d4e6b"></path><path d="M619 600L690 600L662 513Z" fill="#00101c" stroke="#00101c"></path><path d="M289 95L224 132L234 180Z" fill="#112e42" stroke="#112e42"></path><path d="M134 382L184 431L235 338Z" fill="#081a28" stroke="#081a28"></path><path d="M186 0L224 132L289 95Z" fill="#297ea6" stroke="#297ea6"></path><path d="M166 600L316 600L313 532Z" fill="#205a7a" stroke="#205a7a"></path><path d="M313 532L316 600L375 600Z" fill="#00101c" stroke="#00101c"></path><path d="M134 382L235 338L70 306Z" fill="#00101c" stroke="#00101c"></path><path d="M235 338L184 431L317 385Z" fill="#081a28" stroke="#081a28"></path><path d="M184 431L202 474L317 385Z" fill="#205a7a" stroke="#205a7a"></path><path d="M810 0L710 0L727 69Z" fill="#112e42" stroke="#112e42"></path><path d="M727 69L710 0L613 108Z" fill="#277297" stroke="#277297"></path><path d="M431 0L329 0L417 83Z" fill="#205a7a" stroke="#205a7a"></path><path d="M900 405L900 319L805 408Z" fill="#277297" stroke="#277297"></path><path d="M805 408L900 319L788 328Z" fill="#112e42" stroke="#112e42"></path><path d="M797 463L900 405L805 408Z" fill="#0c2435" stroke="#0c2435"></path><path d="M900 487L900 405L797 463Z" fill="#112e42" stroke="#112e42"></path><path d="M690 600L788 600L662 513Z" fill="#15384f" stroke="#15384f"></path><path d="M110 220L235 338L234 180Z" fill="#246688" stroke="#246688"></path><path d="M100 511L166 600L202 474Z" fill="#246688" stroke="#246688"></path><path d="M900 319L900 184L762 239Z" fill="#277297" stroke="#277297"></path><path d="M769 91L810 0L727 69Z" fill="#19435d" stroke="#19435d"></path><path d="M900 184L900 134L769 91Z" fill="#0c2435" stroke="#0c2435"></path><path d="M788 600L900 487L797 463Z" fill="#19435d" stroke="#19435d"></path><path d="M900 134L810 0L769 91Z" fill="#19435d" stroke="#19435d"></path><path d="M114 99L110 220L224 132Z" fill="#277297" stroke="#277297"></path><path d="M224 132L110 220L234 180Z" fill="#246688" stroke="#246688"></path><path d="M110 220L70 306L235 338Z" fill="#246688" stroke="#246688"></path><path d="M100 511L202 474L184 431Z" fill="#1d4e6b" stroke="#1d4e6b"></path><path d="M329 0L186 0L289 95Z" fill="#297ea6" stroke="#297ea6"></path><path d="M0 205L0 310L70 306Z" fill="#297ea6" stroke="#297ea6"></path><path d="M202 474L166 600L313 532Z" fill="#19435d" stroke="#19435d"></path><path d="M100 511L184 431L134 382Z" fill="#297ea6" stroke="#297ea6"></path><path d="M186 0L114 99L224 132Z" fill="#081a28" stroke="#081a28"></path><path d="M0 412L100 511L134 382Z" fill="#297ea6" stroke="#297ea6"></path><path d="M788 600L900 600L900 487Z" fill="#112e42" stroke="#112e42"></path><path d="M900 134L900 0L810 0Z" fill="#277297" stroke="#277297"></path><path d="M0 205L70 306L110 220Z" fill="#15384f" stroke="#15384f"></path><path d="M186 0L131 0L114 99Z" fill="#205a7a" stroke="#205a7a"></path><path d="M0 600L103 600L100 511Z" fill="#081a28" stroke="#081a28"></path><path d="M100 511L103 600L166 600Z" fill="#0c2435" stroke="#0c2435"></path><path d="M0 205L110 220L0 139Z" fill="#081a28" stroke="#081a28"></path><path d="M70 306L0 412L134 382Z" fill="#19435d" stroke="#19435d"></path><path d="M0 310L0 412L70 306Z" fill="#081a28" stroke="#081a28"></path><path d="M0 139L110 220L114 99Z" fill="#112e42" stroke="#112e42"></path><path d="M0 0L0 139L114 99Z" fill="#0c2435" stroke="#0c2435"></path><path d="M0 412L0 483L100 511Z" fill="#1d4e6b" stroke="#1d4e6b"></path><path d="M0 483L0 600L100 511Z" fill="#081a28" stroke="#081a28"></path><path d="M131 0L0 0L114 99Z" fill="#297ea6" stroke="#297ea6"></path></g></svg>